<?xml version="1.0" ?><svg xmlns="http://www.w3.org/2000/svg" xmlns:xlink="http://www.w3.org/1999/xlink" version="1.1" viewBox="0 0 512 512" style="enable-background:new 0 0 512 512;" xml:space="preserve"><g id="_x31_1_x2C__Pool_Balls_x2C__Billiard_x2C__Casino_x2C__Gambler_x2C__Bet_x2C__Gambling_x2C__Sports_x2C__Snooker"><g><path style="fill:#000000;" d="M213.882,272.22c-28.167,4.388-45.571,33.88-35.132,60.846     c-21.597,3.359-38.178,22.08-38.178,44.604c0,24.892,20.251,45.143,45.143,45.143c14.188,0,26.861-6.585,35.143-16.853     c18.094,22.433,52.132,22.508,70.286,0c8.282,10.268,20.955,16.853,35.143,16.853c24.892,0,45.143-20.251,45.143-45.143     c0-22.523-16.582-41.245-38.178-44.604c10.46-27.021-7.022-56.493-35.171-60.853c11.454-29.549-10.511-61.405-42.1-61.405     C224.352,210.808,202.437,242.709,213.882,272.22z M220.857,291.679c13.864,0,25.143,11.279,25.143,25.143     s-11.279,25.143-25.143,25.143s-25.143-11.279-25.143-25.143S206.993,291.679,220.857,291.679z M185.714,402.813     c-13.864,0-25.143-11.279-25.143-25.143s11.279-25.143,25.143-25.143s25.143,11.279,25.143,25.143     S199.578,402.813,185.714,402.813z M256,402.813c-13.864,0-25.143-11.279-25.143-25.143s11.279-25.143,25.143-25.143     s25.143,11.279,25.143,25.143S269.864,402.813,256,402.813z M351.429,377.67c0,13.864-11.279,25.143-25.143,25.143     s-25.143-11.279-25.143-25.143s11.279-25.143,25.143-25.143S351.429,363.806,351.429,377.67z M316.286,316.822     c0,13.864-11.279,25.143-25.143,25.143S266,330.686,266,316.822s11.279-25.143,25.143-25.143S316.286,302.959,316.286,316.822z      M281.122,255.951c0,13.864-11.279,25.143-25.143,25.143s-25.143-11.279-25.143-25.143s11.279-25.143,25.143-25.143     S281.122,242.088,281.122,255.951z"/></g></g><g id="Layer_1"/></svg>