<?xml version="1.0" encoding="UTF-8" standalone="no" ?>
<!DOCTYPE svg PUBLIC "-//W3C//DTD SVG 1.1//EN" "http://www.w3.org/Graphics/SVG/1.1/DTD/svg11.dtd">
<svg xmlns="http://www.w3.org/2000/svg" xmlns:xlink="http://www.w3.org/1999/xlink" version="1.1" width="235" height="216" viewBox="0 0 235 216" xml:space="preserve">
<desc>Created with Fabric.js 3.6.6</desc>
<defs>
</defs>
<g transform="matrix(1.01 0 0 1.01 117.64 108.07)"  >
<path style="stroke: none; stroke-width: 1; stroke-dasharray: none; stroke-linecap: butt; stroke-dashoffset: 0; stroke-linejoin: miter; stroke-miterlimit: 4; fill: rgb(0,0,0); fill-rule: nonzero; opacity: 1;"  transform=" translate(-256, -316.81)" d="M 213.882 272.22 c -28.167 4.388 -45.571 33.88 -35.132 60.846 c -21.597 3.359 -38.178 22.08 -38.178 44.604 c 0 24.892 20.251 45.143 45.143 45.143 c 14.188 0 26.861 -6.585 35.143 -16.853 c 18.094 22.433 52.132 22.508 70.286 0 c 8.282 10.268 20.955 16.853 35.143 16.853 c 24.892 0 45.143 -20.251 45.143 -45.143 c 0 -22.523 -16.582 -41.245 -38.178 -44.604 c 10.46 -27.021 -7.022 -56.493 -35.171 -60.853 c 11.454 -29.549 -10.511 -61.405 -42.1 -61.405 C 224.352 210.808 202.437 242.709 213.882 272.22 z M 220.857 291.679 c 13.864 0 25.143 11.279 25.143 25.143 s -11.279 25.143 -25.143 25.143 s -25.143 -11.279 -25.143 -25.143 S 206.993 291.679 220.857 291.679 z M 185.714 402.813 c -13.864 0 -25.143 -11.279 -25.143 -25.143 s 11.279 -25.143 25.143 -25.143 s 25.143 11.279 25.143 25.143 S 199.578 402.813 185.714 402.813 z M 256 402.813 c -13.864 0 -25.143 -11.279 -25.143 -25.143 s 11.279 -25.143 25.143 -25.143 s 25.143 11.279 25.143 25.143 S 269.864 402.813 256 402.813 z M 351.429 377.67 c 0 13.864 -11.279 25.143 -25.143 25.143 s -25.143 -11.279 -25.143 -25.143 s 11.279 -25.143 25.143 -25.143 S 351.429 363.806 351.429 377.67 z M 316.286 316.822 c 0 13.864 -11.279 25.143 -25.143 25.143 S 266 330.686 266 316.822 s 11.279 -25.143 25.143 -25.143 S 316.286 302.959 316.286 316.822 z M 281.122 255.951 c 0 13.864 -11.279 25.143 -25.143 25.143 s -25.143 -11.279 -25.143 -25.143 s 11.279 -25.143 25.143 -25.143 S 281.122 242.088 281.122 255.951 z" stroke-linecap="round" />
</g>
</svg>